<?xml version="1.0" encoding="utf-8"?>
<!-- Generator: Adobe Illustrator 27.3.1, SVG Export Plug-In . SVG Version: 6.00 Build 0)  -->
<svg version="1.1" id="Capa_1" xmlns="http://www.w3.org/2000/svg" xmlns:xlink="http://www.w3.org/1999/xlink" x="0px" y="0px"
	 viewBox="0 0 1601.5 369.8" style="enable-background:new 0 0 1601.5 369.8;" xml:space="preserve">
<style type="text/css">
	.st0{fill:none;}
	.st1{fill:#F4F400;}
	.st2{fill:#051ED3;}
	.st3{fill:#00B0D7;}
	.st4{fill:#00AACF;}
	.st5{fill:#FF841F;}
	.st6{fill:#FF841F;stroke:#FF841F;stroke-width:2;stroke-miterlimit:10;}
	.st7{fill:#FFFFFF;}
	.st8{fill:none;stroke:#FF841F;stroke-width:2;stroke-miterlimit:10;}
</style>
<image style="display:none;overflow:visible;" width="1772" height="1702" xlink:href="6DAD7A5074D23C5C.png"  transform="matrix(0.24 0 0 0.24 -45.5332 -7.9669)">
</image>
<g>
	<path class="st0" d="M23.7,92.2c14.5-8.2,28.9-16.3,43.4-24.5c0.5-0.3,1-0.3,1.5,0c14.6,8.3,29.2,16.6,43.8,24.9c1,0.6,1,2.1,0,2.7
		c-14.4,8-28.9,16-43.3,24c-0.5,0.3-1,0.3-1.5,0C53,111.2,38.3,103,23.7,94.9C22.7,94.3,22.7,92.8,23.7,92.2z"/>
	<path class="st1" d="M133.6,89.8c-1.7-2.5-3.8-3.8-4.9-4.4C111.5,76,94.3,66.7,77,57.3c-1-0.8-4.1-3-8.7-3.1
		c-4.5-0.1-7.6,1.8-8.7,2.5C41.3,67,22.9,77.1,4.5,87.3c-0.7,0.5-2,1.4-3.1,3.1c-1.4,2.3-1.4,4.5-1.4,5.4c0,20.3,0,40.7,0,61
		c-0.1,0.7-0.4,4.2,2.1,6.9c1,1,2.1,1.6,2.8,1.9C23.5,175.8,42,186,60.4,196.2c1,0.6,2.9,1.6,5.5,1.8c3,0.3,5.3-0.6,6.4-1.1l15-8.2
		c0-4.1,0-8.1,0-12.2c0-0.2,0-0.4-0.1-0.6c-0.3-0.3-0.9-0.3-1.5,0.2c-3,1.4-6,2.9-9,4.3c-0.1,0.1-0.4,0.2-0.8,0.1
		c-0.5-0.1-0.8-0.6-0.8-1.2c-0.1-16.2-0.2-32.3-0.3-48.5c0.5-0.6,1.1-1.3,1.8-1.9c1.1-1,2.2-1.5,2.5-1.7c1.9-1,18-9.6,40.1-21.5
		c0.4-0.4,1.1-0.4,1.5-0.1c0.5,0.3,0.5,1,0.5,1v10c0.6,0,12.1-5.6,14.6-6.7c0-5.1,0-10.2,0-15.2C135.4,93.5,134.9,91.7,133.6,89.8z
		 M60.2,180l-45.7-24.9v-49.8l42.6,23.5c1.9,1,3,3,3,5.2V180z M112.4,94.9c-14.4,8-28.9,16-43.3,24c-0.5,0.3-1,0.3-1.5,0
		c-14.6-8.2-29.3-16.3-43.9-24.5c-1-0.6-1-2.1,0-2.7c14.5-8.2,28.9-16.3,43.4-24.5c0.5-0.3,1-0.3,1.5,0
		c14.6,8.3,29.2,16.6,43.8,24.9C113.5,92.8,113.4,94.3,112.4,94.9z"/>
	<path class="st2" d="M269.4,201.6c3-0.3,5.1-1.5,6.2-2.2c16.3-10.8,32.7-21.7,49-32.5c1.2-0.5,4.5-2.2,6.8-6.2
		c2.2-3.9,2-7.6,1.8-8.9c-0.4-21-0.8-42.1-1.1-63.1c-0.1-0.9-0.3-2.5-1.3-4.2c-1.4-2.3-3.3-3.3-4.1-3.7c-18-9.5-35.9-19.1-53.9-28.6
		c-0.5-0.4-3.6-2.3-7.1-1.4c-1.4,0.4-2.4,1.1-3,1.6C245,64,227.3,75.6,209.7,87.1c-1,0.6-2.8,1.8-4.2,4c-1.6,2.5-1.9,5-2,6.2
		l0.3,17.1c3.6,1.9,7.2,3.8,10.8,5.7c0.1,0.1,0.4,0.2,0.6,0.2c0.4-0.1,0.7-0.7,0.6-1.4c0.1-3.3,0.3-6.7,0.4-10c0-0.1,0-0.5,0.3-0.8
		c0.3-0.3,0.9-0.4,1.4-0.1c14.3,7.5,28.6,15,42.9,22.5c0.3,0.7,0.6,1.5,0.8,2.5c0.3,1.5,0.3,2.6,0.3,3c0,2.2,0.1,20.4,0.2,45.5
		c0.1,0.6-0.1,1.1-0.6,1.3c-0.5,0.3-1.1,0-1.1-0.1l-8.8-4.7c-0.3,0.5-0.7,13.3-0.9,16c4.5,2.4,9,4.8,13.5,7.1
		C265.3,201.5,267.1,201.8,269.4,201.6z M224.1,94.5l43.4-28.7l44,23.4l-40.8,26.7c-1.8,1.2-4.1,1.3-6,0.3L224.1,94.5z M274.8,180.5
		c-0.3-16.5-0.6-33-0.9-49.5c0-0.5,0.3-1,0.7-1.3c14.1-9.1,28.1-18.2,42.2-27.3c1-0.6,2.3,0.1,2.4,1.2c0.4,16.6,0.9,33.2,1.3,49.8
		c0,0.5-0.3,1-0.7,1.3c-14.2,9-28.4,18-42.6,27C276.1,182.4,274.8,181.7,274.8,180.5z"/>
	<path class="st3" d="M103.6,256.4c-1.4,2.8-1.5,5.3-1.5,6.6c0.4,19.8,0.8,39.6,1.2,59.4c-0.2,1.3-0.6,5.1,1.6,9.1
		c2.2,3.9,5.5,5.6,6.7,6.1c18.5,10.4,37,20.8,55.5,31.2c0.8,0.4,2.3,1,4.4,1c2.7,0,4.7-1.2,5.5-1.7c18.2-10.8,36.4-21.6,54.7-32.4
		c0.6-0.3,4-1.9,5.1-5.5c0.4-1.4,0.4-2.6,0.3-3.5c-0.3-21.3-0.6-42.6-1-63.8c0-1.1,0-3.3-1.2-5.7c-1.3-2.7-3.3-4.3-4.2-4.9l-15-8.5
		c-3.6,2.2-7.3,4.3-10.9,6.5c-0.2,0.1-0.4,0.2-0.5,0.4c-0.1,0.4,0.2,1,0.9,1.2c2.8,1.8,5.7,3.6,8.5,5.5c0.1,0.1,0.4,0.2,0.5,0.6
		c0.1,0.5-0.2,1-0.7,1.3c-14.4,8.7-28.9,17.3-43.3,26c-0.8-0.1-1.7-0.2-2.7-0.6c-1.5-0.5-2.5-1.1-2.8-1.2
		c-1.9-1.1-17.8-10.3-39.7-23c-0.6-0.2-0.9-0.7-0.8-1.2c0.1-0.6,0.6-0.9,0.7-0.9l8.9-5.3c-0.3-0.5-0.8-1.2-1.6-2
		c-1.9-1.9-3.8-2.5-6.3-3.7c-1.4-0.6-3.3-1.7-5.6-3.2c-4.5,2.7-9.1,5.4-13.6,8.1C106,253,104.7,254.4,103.6,256.4z M221.9,271.6
		l1,52.5l-44.7,26.5l-0.7-49.2c0-2.2,1.1-4.2,3.1-5.4L221.9,271.6z M119,272c14.5,8.2,29.1,16.3,43.6,24.5c0.5,0.3,0.8,0.7,0.8,1.3
		c0.1,16.9,0.3,33.8,0.4,50.8c0,1.2-1.3,2-2.4,1.4c-14.7-8.1-29.4-16.2-44.1-24.3c-0.5-0.3-0.8-0.8-0.8-1.3c0-17,0-34,0-51
		C116.6,272.2,118,271.4,119,272z"/>
	<path class="st4" d="M75.3,290.9c-1.3-0.7-1.4-2.1-1.5-2.2c0.1-15,0.1-30,0.2-45c0-0.4-0.1-1.9,0.9-3.3c0.8-1.2,1.8-1.7,2.3-1.9
		c5.4-3.1,10.8-6.2,16.2-9.2c-1-0.6-2.7-2-4.1-4.2c-1.4-2.3-1.7-4.4-1.8-5.5c-5.5,3.1-11,6.2-16.4,9.2c-0.4,0.2-1.1,0.6-2.1,0.7
		c-1.4,0.1-2.4-0.4-2.8-0.7c-14.2-7.7-28.4-15.4-42.6-23.1c-0.1-0.1-0.7-0.8-0.8-1.7c0-1.1,0.6-1.8,0.8-2c3-1.7,5.9-3.4,8.9-5.2
		l-12.9-7l-14.6,9c-0.6,0.2-2,0.8-3,2.3c-1.8,2.5-1,5.3-0.9,5.7c0,21.3-0.1,42.6-0.1,63.9c0.2,0.8,0.7,2.6,2.3,4.2
		c1.2,1.2,2.5,1.8,3.2,2.1c17.5,9.5,35,19.1,52.4,28.6c0.9,0.7,4.8,3.4,10.1,2.7c3.1-0.4,5.3-1.8,6.3-2.7c3.7-2,7.4-4.1,11.1-6.1
		l0.4-13.3l-9,5C77.3,291.2,76.3,291.5,75.3,290.9z M61.1,292l-47.6-26.6v-50.4l47.6,25.7V292z"/>
	<path class="st4" d="M314.4,204.5c0,1.4-1.1,2.3-1.2,2.3c-13.2,7.1-26.4,14.3-39.6,21.4c-0.4,0.2-1.6,1-3.3,0.9
		c-1.4-0.1-2.4-0.8-2.8-1.1c-5.3-3.3-10.6-6.5-15.9-9.8c-0.1,1.2-0.4,3.2-1.7,5.4c-1.3,2.4-3.1,3.8-4.1,4.5c5.3,3.3,10.7,6.7,16,10
		c0.4,0.2,1.1,0.7,1.6,1.6c0.8,1.2,0.8,2.3,0.8,2.8c0.1,16.2,0.1,32.3,0.2,48.5c-0.1,0.2-0.3,1-1.2,1.5c-1,0.6-1.9,0.3-2.1,0.3
		c-2.9-1.8-5.9-3.5-8.8-5.3l0,14.7l14.9,8.5c0.5,0.4,1.7,1.4,3.4,1.6c3,0.4,5.1-1.7,5.4-2c18.7-10.2,37.4-20.4,56.1-30.5
		c0.6-0.6,1.9-1.9,2.6-4c0.5-1.6,0.4-3,0.3-3.8c0-19.9,0-39.8-0.1-59.7c0.1-1.1,0.6-5.9-2.5-10.1c-1.8-2.5-4.1-3.7-5.4-4.3
		c-3.6-2.3-7.1-4.5-10.7-6.8l-11.8,6.1l8.7,5.5C313.6,202.6,314.4,203.4,314.4,204.5z M322.2,216.5l-0.5,54.5l-44.2,24.2l-0.3-54.1
		L322.2,216.5z"/>
	<path d="M235.1,35.5c-1.6-3-4.6-4-5.1-4.1c-17.6-9.6-35.2-19.2-52.8-28.8c-1-0.7-3.6-2.3-7.2-2.5c-4.5-0.3-7.8,1.9-8.7,2.5
		c-18.6,10.1-37.2,20.2-55.8,30.3c-0.7,0.3-2,0.9-3,2.4c-1.8,2.5-1.2,5.3-1.1,5.8v13.3l13.3,7.8c0-2.6,0-5.2,0-7.8
		c-0.2-1.1,0.1-2.3,1-3c1-0.8,2.2-0.7,2.4-0.7L162.4,76c0,6.5,0,13,0,19.6c1.6-0.5,3.9-0.9,6.6-0.9c2.3,0.1,4.1,0.5,5.5,0.9
		l0.4-19.2c14.8-8.6,29.5-17.2,44.3-25.8c0.3-0.1,1.5-0.5,2.8,0c1.1,0.4,1.7,1.2,2,1.5v10.3l11.8-6.6c0-4.8,0-9.6,0-14.4
		C236,40.7,236.5,38.1,235.1,35.5z M213.6,39.9l-43.4,24c-0.4,0.2-0.9,0.2-1.3,0c-14.8-8.2-29.7-16.5-44.5-24.7
		c-0.9-0.5-0.9-1.8,0-2.3c14.3-8,28.5-16,42.8-24c0.4-0.2,0.9-0.2,1.3,0c15,8.2,30,16.5,45.1,24.7C214.5,38.1,214.5,39.4,213.6,39.9
		z"/>
	<path class="st5" d="M235.5,145.7c-1.7-2.5-3.8-3.8-4.9-4.4c-17.2-9.4-34.5-18.7-51.7-28.1c-1-0.8-4.1-3-8.7-3.1
		c-4.5-0.1-7.6,1.8-8.7,2.5c-18.4,10.2-36.8,20.4-55.2,30.6c-0.7,0.5-2,1.4-3.1,3.1c-1.4,2.3-1.4,4.5-1.4,5.4c0,20.3,0,40.7,0,61
		c-0.1,0.7-0.4,4.2,2.1,6.9c1,1,2.1,1.6,2.8,1.9c18.5,10.2,36.9,20.3,55.4,30.5c1,0.6,2.9,1.6,5.5,1.8c3,0.3,5.3-0.6,6.4-1.1l15-8.2
		c0,0,0,0,0,0l40.8-23.3c1.1-0.6,3.2-1.8,5-4.2c1.7-2.3,2.3-4.6,2.6-5.8c0-15.2,0-30.3,0-45.5c0-0.5,0-1.1,0-1.6c0-4.5,0-9.1,0-13.6
		C237.3,149.3,236.8,147.5,235.5,145.7z M162.1,235.8l-45.7-24.9v-49.8l42.6,23.5c1.9,1,3,3,3,5.2V235.8z M171,174.8
		c-0.5,0.3-1,0.3-1.5,0c-14.6-8.2-29.3-16.3-43.9-24.5c-1-0.6-1-2.1,0-2.7c14.5-8.2,28.9-16.3,43.4-24.5c0.5-0.3,1-0.3,1.5,0
		c14.6,8.3,29.2,16.6,43.8,24.9c1,0.6,1,2.1,0,2.7C199.9,158.8,185.4,166.8,171,174.8z M223,172.4l0.6,37.9c0,0.3,0,0.8-0.2,1.3
		c-0.2,0.5-0.4,0.8-0.6,1L188,231.6c-0.2,0.1-0.3,0.1-0.5,0.3c-3,1.4-6,2.9-9,4.3c-0.1,0.1-0.4,0.2-0.8,0.1
		c-0.5-0.1-0.8-0.6-0.8-1.2c-0.1-16.2-0.2-32.3-0.3-48.5c0.5-0.6,1.1-1.3,1.8-1.9c1.1-1,2.2-1.5,2.5-1.7c1.9-1,18-9.6,40.1-21.5
		c0.4-0.4,1.1-0.4,1.5-0.1c0.5,0.3,0.5,1,0.5,1L223,172.4C223,172.4,223,172.4,223,172.4z"/>
</g>
<g>
	<rect x="374.4" y="107" class="st6" width="616.8" height="155.8"/>
	<g>
		<path class="st7" d="M453,214.4h-5.5l-39.2-74.3v103.8h-4.9V130.7h5.5L453,214.4z M413.2,156.4l4.9,9.4v78.1h-4.9V156.4z
			 M464.1,214.4h-5.6l-44-83.6h5.6L464.1,214.4z M423.1,175.1l4.9,9.3v59.4h-4.9V175.1z M514.4,140.1l-39.2,74.3h-5.6l-43.9-83.6
			h5.5l41.3,78.4l41.2-78.4h5.6v113.2h-4.9V140.1z M432.9,193.9l4.9,9.3v40.7h-4.9V193.9z M465.9,189.5l-2.9-5.2l28.4-53.6h5.6
			L465.9,189.5z M471.5,200.3l-2.8-5.1l33.9-64.4h5.5L471.5,200.3z M484.9,202.6l4.9-9.3v50.6h-4.9V202.6z M494.7,183.7l4.9-9.3
			v69.4h-4.9V183.7z M504.5,165.2l4.9-9.4v88.1h-4.9V165.2z"/>
		<path class="st7" d="M534.6,211.2c-3.3-7.6-4.9-15.5-4.9-23.9c0-8.3,1.6-16.3,4.9-23.9s7.6-14.1,13.1-19.6
			c5.5-5.5,12-9.9,19.6-13.1c7.6-3.3,15.5-4.9,23.9-4.9c8.3,0,16.3,1.6,23.9,4.9c7.6,3.3,14.1,7.6,19.6,13.1
			c5.5,5.5,9.9,12,13.1,19.6c3.3,7.6,4.9,15.5,4.9,23.9c0,8.3-1.6,16.3-4.9,23.9c-3.3,7.6-7.6,14.1-13.1,19.6
			c-5.5,5.5-12,9.9-19.6,13.1s-15.5,4.9-23.9,4.9c-8.3,0-16.3-1.6-23.9-4.9s-14.1-7.6-19.6-13.1
			C542.3,225.3,537.9,218.8,534.6,211.2z M539.1,165.3c-3,7-4.5,14.3-4.5,22c0,7.7,1.5,15,4.5,22c3,7,7,13,12.1,18.1
			s11.1,9.1,18.1,12.1c7,3,14.3,4.5,22,4.5s15-1.5,22-4.5c7-3,13-7,18.1-12.1s9.1-11.1,12.1-18.1c3-7,4.5-14.3,4.5-22
			c0-7.7-1.5-15-4.5-22c-3-7-7-13-12.1-18.1c-5.1-5.1-11.1-9.1-18.1-12.1c-7-3-14.3-4.5-22-4.5s-15,1.5-22,4.5c-7,3-13,7-18.1,12.1
			C546.1,152.3,542.1,158.3,539.1,165.3z M546.5,213.2c-4.6-7.9-6.9-16.6-6.9-25.9s2.3-18,6.9-25.9c4.6-7.9,10.9-14.2,18.8-18.8
			c7.9-4.6,16.6-6.9,25.9-6.9c9.3,0,18,2.3,25.9,6.9c7.9,4.6,14.2,10.9,18.8,18.8c4.6,7.9,6.9,16.6,6.9,25.9s-2.3,18-6.9,25.9
			c-4.6,7.9-10.9,14.2-18.8,18.8c-7.9,4.6-16.6,6.9-25.9,6.9c-9.3,0-18-2.3-25.9-6.9C557.4,227.4,551.1,221.1,546.5,213.2z
			 M548.2,169.1c-2.5,5.8-3.7,11.8-3.7,18.2c0,6.3,1.2,12.4,3.7,18.2c2.5,5.8,5.8,10.8,9.9,14.9c4.2,4.2,9.1,7.5,14.9,9.9
			c5.8,2.5,11.8,3.7,18.2,3.7c6.3,0,12.4-1.2,18.2-3.7c5.8-2.5,10.8-5.8,14.9-9.9c4.2-4.2,7.5-9.1,9.9-14.9
			c2.5-5.8,3.7-11.8,3.7-18.2c0-6.3-1.2-12.4-3.7-18.2c-2.5-5.8-5.8-10.8-9.9-14.9c-4.2-4.2-9.1-7.5-14.9-9.9
			c-5.8-2.5-11.8-3.7-18.2-3.7c-6.3,0-12.4,1.2-18.2,3.7c-5.8,2.5-10.8,5.8-14.9,9.9C554,158.4,550.7,163.3,548.2,169.1z M555,208.3
			c-3.7-6.4-5.6-13.4-5.6-21c0-7.6,1.9-14.6,5.6-21c3.7-6.4,8.8-11.5,15.2-15.2c6.4-3.7,13.4-5.6,21-5.6c7.6,0,14.6,1.9,21,5.6
			c6.4,3.7,11.5,8.8,15.2,15.2s5.6,13.4,5.6,21c0,7.6-1.9,14.6-5.6,21c-3.7,6.4-8.8,11.5-15.2,15.2c-6.4,3.7-13.4,5.6-21,5.6
			c-7.6,0-14.6-1.9-21-5.6C563.8,219.8,558.8,214.7,555,208.3z M559.3,168.8c-3.3,5.6-5,11.8-5,18.5s1.7,12.9,5,18.5
			c3.3,5.6,7.8,10.1,13.4,13.4c5.6,3.3,11.8,5,18.5,5s12.9-1.7,18.5-5c5.6-3.3,10.1-7.8,13.4-13.4c3.3-5.6,5-11.8,5-18.5
			s-1.7-12.9-5-18.5c-3.3-5.6-7.8-10.1-13.4-13.4c-5.6-3.3-11.8-5-18.5-5s-12.9,1.7-18.5,5C567.1,158.7,562.6,163.1,559.3,168.8z
			 M561.8,199.7c-1.7-3.9-2.5-8.1-2.5-12.4c0-4.3,0.8-8.5,2.5-12.4c1.7-3.9,4-7.3,6.8-10.2c2.9-2.9,6.3-5.1,10.2-6.8
			c3.9-1.7,8.1-2.5,12.4-2.5c4.3,0,8.5,0.8,12.4,2.5c3.9,1.7,7.3,4,10.2,6.8c2.9,2.9,5.1,6.3,6.8,10.2c1.7,3.9,2.5,8.1,2.5,12.4
			c0,4.3-0.8,8.5-2.5,12.4c-1.7,3.9-4,7.3-6.8,10.2c-2.9,2.9-6.3,5.1-10.2,6.8c-3.9,1.7-8.1,2.5-12.4,2.5c-4.3,0-8.5-0.8-12.4-2.5
			c-3.9-1.7-7.3-4-10.2-6.8C565.8,207,563.5,203.6,561.8,199.7z M572.1,168.2c-5.3,5.3-7.9,11.7-7.9,19.1c0,7.5,2.6,13.8,7.9,19.1
			c5.3,5.3,11.7,7.9,19.1,7.9c7.5,0,13.8-2.6,19.1-7.9c5.3-5.3,7.9-11.7,7.9-19.1c0-7.5-2.6-13.8-7.9-19.1
			c-5.3-5.3-11.7-7.9-19.1-7.9C583.8,160.2,577.4,162.9,572.1,168.2z"/>
		<path class="st7" d="M726,243.9h-63.1V130.7H726c8.9,0,17.2,2.5,24.9,7.6c7.7,5.1,13.8,11.9,18.4,20.6c4.6,8.7,6.9,18.2,6.9,28.4
			c0,7.7-1.4,15-4.1,22c-2.7,7-6.3,13-10.8,18.1s-9.9,9.1-16,12.1C739.1,242.4,732.6,243.9,726,243.9z M667.8,239H726
			c6,0,11.7-1.4,17.3-4.1s10.4-6.4,14.4-11c4.1-4.6,7.3-10.1,9.7-16.5c2.4-6.4,3.7-13.1,3.7-20.1c0-7-1.2-13.6-3.7-20
			c-2.4-6.4-5.7-11.9-9.7-16.5c-4.1-4.6-8.9-8.3-14.4-11c-5.6-2.7-11.3-4.1-17.3-4.1h-58.2V239z M672.8,234v-93.5H726
			c7.1,0,13.7,2.1,19.9,6.3c6.2,4.2,11,9.9,14.7,17c3.6,7.2,5.5,15,5.5,23.4c0,8.4-1.8,16.2-5.5,23.4c-3.6,7.2-8.5,12.9-14.7,17
			c-6.1,4.2-12.8,6.3-19.9,6.3H672.8z M677.7,229.1H726c6.2,0,12-1.9,17.4-5.6c5.4-3.7,9.6-8.8,12.8-15.2c3.2-6.4,4.8-13.4,4.8-21
			c0-7.5-1.6-14.5-4.8-20.9c-3.2-6.4-7.5-11.5-12.8-15.3c-5.4-3.7-11.2-5.6-17.4-5.6h-48.3V229.1z M682.6,224.2v-73.8H726
			c5.3,0,10.3,1.6,14.9,4.9c4.6,3.3,8.3,7.8,11,13.4c2.7,5.7,4.1,11.9,4.1,18.6c0,6.7-1.4,12.8-4.1,18.5c-2.7,5.7-6.4,10.2-11,13.5
			c-4.6,3.3-9.6,4.9-14.9,4.9H682.6z M687.5,219.3H726c6.8,0,12.6-3.1,17.5-9.4c4.9-6.3,7.3-13.8,7.3-22.6c0-5.8-1.1-11.1-3.4-16.1
			c-2.3-4.9-5.3-8.8-9.1-11.7c-3.8-2.8-7.9-4.3-12.4-4.3h-38.5V219.3z M692.4,214.4v-54.1H726c5.4,0,10.1,2.7,14,8
			c3.9,5.3,5.8,11.7,5.8,19.1c0,7.5-1.9,13.8-5.8,19.1c-3.9,5.3-8.6,7.9-14,7.9H692.4z M697.4,209.4H726c4.1,0,7.5-2.2,10.4-6.5
			c2.9-4.3,4.3-9.5,4.3-15.6c0-6.1-1.4-11.4-4.3-15.7c-2.9-4.3-6.4-6.5-10.4-6.5h-28.6V209.4z"/>
		<path class="st7" d="M896.1,194.1v-63.4h4.9v63.4c0,9.8-2.6,19-7.7,27.4c-5.1,8.4-12.1,15.1-20.9,20c-8.8,4.9-18.4,7.3-28.7,7.3
			c-10.3,0-19.9-2.4-28.7-7.3c-8.8-4.9-15.8-11.5-20.9-20c-5.1-8.4-7.7-17.5-7.7-27.4v-63.4h4.9v63.4c0,6.7,1.4,13.1,4.2,19.3
			c2.8,6.1,6.5,11.4,11.2,15.9c4.7,4.4,10.3,8,16.8,10.6c6.5,2.6,13.3,4,20.3,4c7.1,0,13.8-1.3,20.3-4c6.5-2.6,12.1-6.2,16.8-10.6
			c4.7-4.4,8.4-9.7,11.2-15.9C894.8,207.2,896.1,200.8,896.1,194.1z M886.3,194.1v-63.4h4.9v63.4c0,6.1-1.3,11.9-3.8,17.4
			c-2.5,5.5-5.9,10.3-10.1,14.3c-4.2,4-9.3,7.2-15.2,9.6c-5.9,2.4-12,3.6-18.4,3.6s-12.6-1.2-18.4-3.6c-5.9-2.4-10.9-5.6-15.2-9.6
			c-4.2-4-7.6-8.8-10.1-14.3c-2.5-5.5-3.8-11.3-3.8-17.4v-63.4h4.9v63.4c0,7.2,1.9,13.9,5.7,20c3.8,6.1,9,11,15.5,14.6
			c6.5,3.6,13.7,5.4,21.4,5.4c7.7,0,14.8-1.8,21.4-5.4c6.5-3.6,11.7-8.4,15.5-14.6C884.4,208,886.3,201.3,886.3,194.1z M876.5,194.1
			v-63.4h4.9v63.4c0,4.7-1,9.3-3,13.6c-2,4.3-4.7,8-8.1,11.2c-3.4,3.1-7.4,5.6-12,7.5s-9.5,2.8-14.6,2.8c-5.1,0-10-0.9-14.6-2.8
			s-8.7-4.3-12-7.5c-3.4-3.1-6.1-6.9-8.1-11.2c-2-4.3-3-8.8-3-13.6v-63.4h4.9v63.4c0,5.4,1.5,10.4,4.4,15.1c2.9,4.6,6.9,8.3,12,11
			c5,2.7,10.5,4,16.4,4c5.9,0,11.4-1.3,16.4-4c5-2.7,9-6.3,12-11C875,204.6,876.5,199.5,876.5,194.1z M866.6,194.1v-63.4h4.9v63.4
			c0,6.9-2.7,12.8-8.2,17.8c-5.5,4.9-12,7.4-19.7,7.4s-14.2-2.5-19.7-7.4c-5.5-4.9-8.2-10.8-8.2-17.8v-63.4h4.9v63.4
			c0,5.6,2.2,10.3,6.7,14.3c4.5,4,9.9,5.9,16.2,5.9c6.3,0,11.7-2,16.2-5.9C864.4,204.4,866.6,199.7,866.6,194.1z"/>
		<path class="st7" d="M913.6,130.7h4.9v113.2h-4.9V130.7z M923.5,130.7h4.9v113.2h-4.9V130.7z M933.3,130.7h4.9v113.2h-4.9V130.7z
			 M943.2,130.7h4.9v88.6h39.4v4.9h-39.4v4.9h39.4v4.9h-39.4v4.9h39.4v4.9h-44.3V130.7z"/>
		<path class="st5" d="M998.3,130.7h4.9v113.2h-4.9V130.7z M1008.1,130.7h4.9v113.2h-4.9V130.7z M1018,130.7h4.9v113.2h-4.9V130.7z
			 M1077,130.7h4.9v113.2h-4.9v-44.3h-44.3v44.3h-4.9V130.7h4.9v44.2h44.3V130.7z M1077,184.8v-4.9h-44.3v4.9H1077z M1077,194.6
			v-4.9h-44.3v4.9H1077z M1086.9,130.7h4.9v113.2h-4.9V130.7z M1096.7,130.7h4.9v113.2h-4.9V130.7z M1106.5,130.7h4.9v113.2h-4.9
			V130.7z"/>
		<path class="st5" d="M1126.8,211.2c-3.3-7.6-4.9-15.5-4.9-23.9c0-8.3,1.6-16.3,4.9-23.9s7.6-14.1,13.1-19.6
			c5.5-5.5,12-9.9,19.6-13.1c7.6-3.3,15.5-4.9,23.9-4.9c8.3,0,16.3,1.6,23.9,4.9c7.6,3.3,14.1,7.6,19.6,13.1
			c5.5,5.5,9.9,12,13.1,19.6c3.3,7.6,4.9,15.5,4.9,23.9c0,8.3-1.6,16.3-4.9,23.9c-3.3,7.6-7.6,14.1-13.1,19.6
			c-5.5,5.5-12,9.9-19.6,13.1s-15.5,4.9-23.9,4.9c-8.3,0-16.3-1.6-23.9-4.9s-14.1-7.6-19.6-13.1
			C1134.4,225.3,1130.1,218.8,1126.8,211.2z M1131.3,165.3c-3,7-4.5,14.3-4.5,22c0,7.7,1.5,15,4.5,22c3,7,7,13,12.1,18.1
			s11.1,9.1,18.1,12.1c7,3,14.3,4.5,22,4.5s15-1.5,22-4.5c7-3,13-7,18.1-12.1s9.1-11.1,12.1-18.1c3-7,4.5-14.3,4.5-22
			c0-7.7-1.5-15-4.5-22c-3-7-7-13-12.1-18.1c-5.1-5.1-11.1-9.1-18.1-12.1c-7-3-14.3-4.5-22-4.5s-15,1.5-22,4.5c-7,3-13,7-18.1,12.1
			C1138.3,152.3,1134.3,158.3,1131.3,165.3z M1138.7,213.2c-4.6-7.9-6.9-16.6-6.9-25.9s2.3-18,6.9-25.9c4.6-7.9,10.9-14.2,18.8-18.8
			c7.9-4.6,16.6-6.9,25.9-6.9c9.3,0,18,2.3,25.9,6.9c7.9,4.6,14.2,10.9,18.8,18.8c4.6,7.9,6.9,16.6,6.9,25.9s-2.3,18-6.9,25.9
			c-4.6,7.9-10.9,14.2-18.8,18.8c-7.9,4.6-16.6,6.9-25.9,6.9c-9.3,0-18-2.3-25.9-6.9C1149.6,227.4,1143.3,221.1,1138.7,213.2z
			 M1140.4,169.1c-2.5,5.8-3.7,11.8-3.7,18.2c0,6.3,1.2,12.4,3.7,18.2c2.5,5.8,5.8,10.8,9.9,14.9c4.2,4.2,9.1,7.5,14.9,9.9
			c5.8,2.5,11.8,3.7,18.2,3.7c6.3,0,12.4-1.2,18.2-3.7c5.8-2.5,10.8-5.8,14.9-9.9c4.2-4.2,7.5-9.1,9.9-14.9
			c2.5-5.8,3.7-11.8,3.7-18.2c0-6.3-1.2-12.4-3.7-18.2c-2.5-5.8-5.8-10.8-9.9-14.9c-4.2-4.2-9.1-7.5-14.9-9.9
			c-5.8-2.5-11.8-3.7-18.2-3.7c-6.3,0-12.4,1.2-18.2,3.7c-5.8,2.5-10.8,5.8-14.9,9.9C1146.1,158.4,1142.8,163.3,1140.4,169.1z
			 M1147.2,208.3c-3.7-6.4-5.6-13.4-5.6-21c0-7.6,1.9-14.6,5.6-21c3.7-6.4,8.8-11.5,15.2-15.2c6.4-3.7,13.4-5.6,21-5.6
			c7.6,0,14.6,1.9,21,5.6c6.4,3.7,11.5,8.8,15.2,15.2s5.6,13.4,5.6,21c0,7.6-1.9,14.6-5.6,21c-3.7,6.4-8.8,11.5-15.2,15.2
			c-6.4,3.7-13.4,5.6-21,5.6c-7.6,0-14.6-1.9-21-5.6C1156,219.8,1150.9,214.7,1147.2,208.3z M1151.5,168.8c-3.3,5.6-5,11.8-5,18.5
			s1.7,12.9,5,18.5c3.3,5.6,7.8,10.1,13.4,13.4c5.6,3.3,11.8,5,18.5,5s12.9-1.7,18.5-5c5.6-3.3,10.1-7.8,13.4-13.4
			c3.3-5.6,5-11.8,5-18.5s-1.7-12.9-5-18.5c-3.3-5.6-7.8-10.1-13.4-13.4c-5.6-3.3-11.8-5-18.5-5s-12.9,1.7-18.5,5
			C1159.2,158.7,1154.8,163.1,1151.5,168.8z M1154,199.7c-1.7-3.9-2.5-8.1-2.5-12.4c0-4.3,0.8-8.5,2.5-12.4c1.7-3.9,4-7.3,6.8-10.2
			c2.9-2.9,6.3-5.1,10.2-6.8c3.9-1.7,8.1-2.5,12.4-2.5c4.3,0,8.5,0.8,12.4,2.5c3.9,1.7,7.3,4,10.2,6.8c2.9,2.9,5.1,6.3,6.8,10.2
			c1.7,3.9,2.5,8.1,2.5,12.4c0,4.3-0.8,8.5-2.5,12.4c-1.7,3.9-4,7.3-6.8,10.2c-2.9,2.9-6.3,5.1-10.2,6.8c-3.9,1.7-8.1,2.5-12.4,2.5
			c-4.3,0-8.5-0.8-12.4-2.5c-3.9-1.7-7.3-4-10.2-6.8C1157.9,207,1155.6,203.6,1154,199.7z M1164.3,168.2c-5.3,5.3-7.9,11.7-7.9,19.1
			c0,7.5,2.6,13.8,7.9,19.1c5.3,5.3,11.7,7.9,19.1,7.9c7.5,0,13.8-2.6,19.1-7.9c5.3-5.3,7.9-11.7,7.9-19.1c0-7.5-2.6-13.8-7.9-19.1
			c-5.3-5.3-11.7-7.9-19.1-7.9C1175.9,160.2,1169.6,162.9,1164.3,168.2z"/>
		<path class="st5" d="M1364.3,194.1v-63.4h4.9v63.4c0,9.8-2.6,19-7.7,27.4c-5.1,8.4-12.1,15.1-20.9,20c-8.8,4.9-18.4,7.3-28.7,7.3
			c-10.3,0-19.9-2.4-28.7-7.3c-8.8-4.9-15.8-11.5-20.9-20c-5.1-8.4-7.7-17.5-7.7-27.4v-63.4h4.9v63.4c0,6.7,1.4,13.1,4.2,19.3
			c2.8,6.1,6.5,11.4,11.2,15.9c4.7,4.4,10.3,8,16.8,10.6c6.5,2.6,13.3,4,20.3,4c7.1,0,13.8-1.3,20.3-4c6.5-2.6,12.1-6.2,16.8-10.6
			c4.7-4.4,8.4-9.7,11.2-15.9C1362.9,207.2,1364.3,200.8,1364.3,194.1z M1354.4,194.1v-63.4h4.9v63.4c0,6.1-1.3,11.9-3.8,17.4
			c-2.5,5.5-5.9,10.3-10.1,14.3c-4.2,4-9.3,7.2-15.2,9.6c-5.9,2.4-12,3.6-18.4,3.6s-12.6-1.2-18.4-3.6c-5.9-2.4-10.9-5.6-15.2-9.6
			c-4.2-4-7.6-8.8-10.1-14.3c-2.5-5.5-3.8-11.3-3.8-17.4v-63.4h4.9v63.4c0,7.2,1.9,13.9,5.7,20c3.8,6.1,9,11,15.5,14.6
			c6.5,3.6,13.7,5.4,21.4,5.4c7.7,0,14.8-1.8,21.4-5.4c6.5-3.6,11.7-8.4,15.5-14.6C1352.5,208,1354.4,201.3,1354.4,194.1z
			 M1344.6,194.1v-63.4h4.9v63.4c0,4.7-1,9.3-3,13.6c-2,4.3-4.7,8-8.1,11.2c-3.4,3.1-7.4,5.6-12,7.5s-9.5,2.8-14.6,2.8
			c-5.1,0-10-0.9-14.6-2.8s-8.7-4.3-12-7.5c-3.4-3.1-6.1-6.9-8.1-11.2c-2-4.3-3-8.8-3-13.6v-63.4h4.9v63.4c0,5.4,1.5,10.4,4.4,15.1
			c2.9,4.6,6.9,8.3,12,11c5,2.7,10.5,4,16.4,4c5.9,0,11.4-1.3,16.4-4c5-2.7,9-6.3,12-11C1343.1,204.6,1344.6,199.5,1344.6,194.1z
			 M1334.8,194.1v-63.4h4.9v63.4c0,6.9-2.7,12.8-8.2,17.8c-5.5,4.9-12,7.4-19.7,7.4s-14.2-2.5-19.7-7.4c-5.5-4.9-8.2-10.8-8.2-17.8
			v-63.4h4.9v63.4c0,5.6,2.2,10.3,6.7,14.3c4.5,4,9.9,5.9,16.2,5.9c6.3,0,11.7-2,16.2-5.9C1332.5,204.4,1334.8,199.7,1334.8,194.1z"
			/>
		<path class="st5" d="M1427.5,175h-8.3c-3.5,0-6-0.9-7.6-2.7c-1.5-1.8-2.3-4.2-2.3-7.1c0-6.6,4.9-9.8,14.7-9.8
			c9.2,0,16.1,1.4,20.8,4.1l-4,3c-3.2-1.5-8.8-2.2-16.8-2.2c-3.9,0-6.5,0.4-7.9,1.3c-1.3,0.9-2,2.1-2,3.6c0,1.5,0.4,2.8,1.1,3.6
			c0.7,0.9,2.1,1.3,4,1.3h8.5c6.2,0,11.7,1,16.6,3.1c4.9,2.1,9,5,12.2,8.6c3.2,3.6,5.6,7.8,7.3,12.5c1.7,4.7,2.5,9.8,2.5,15.1
			c0,4.4-0.6,8.5-1.8,12.4c-1.2,3.9-3.1,7.5-5.6,10.8c-2.5,3.3-5.5,6.1-9,8.5c-3.5,2.4-7.6,4.3-12.4,5.6c-4.8,1.3-10,2-15.6,2
			c-8.8,0-17-1.3-24.7-4c-7.7-2.7-14.1-6.4-19.2-11.2l4-2.9c4.6,4.2,10.5,7.4,17.5,9.7c7,2.3,14.5,3.5,22.4,3.5
			c6.2,0,11.9-0.9,16.9-2.7c5-1.8,9.2-4.3,12.4-7.4c3.3-3.1,5.8-6.8,7.5-10.9c1.8-4.1,2.6-8.6,2.6-13.4c0-6.3-1.3-12.1-3.8-17.2
			c-2.6-5.1-6.4-9.3-11.7-12.5C1440.8,176.6,1434.6,175,1427.5,175z M1419.2,199.6h7.5c3.5,0,6,0.9,7.6,2.7c1.5,1.8,2.3,4.2,2.3,7.1
			c0,6.6-4.9,9.8-14.7,9.8c-9.2,0-16.2-1.4-20.8-4.1l4-3c3.2,1.5,8.8,2.2,16.9,2.2c3.9,0,6.5-0.4,7.9-1.3c1.3-0.9,2-2.1,2-3.6
			c0-1.5-0.4-2.7-1.1-3.6c-0.8-0.9-2.1-1.3-4.1-1.3h-7.4c-6.3,0-12-1-17-3.1c-5.1-2-9.2-4.9-12.5-8.5c-3.3-3.6-5.8-7.8-7.5-12.5
			c-1.7-4.7-2.6-9.8-2.6-15.3c0-4.4,0.6-8.5,1.8-12.4c1.2-3.9,3.1-7.5,5.6-10.8c2.5-3.3,5.5-6.1,9-8.5c3.5-2.4,7.6-4.3,12.4-5.6
			c4.8-1.3,10-2,15.6-2c8.8,0,17,1.3,24.7,4s14,6.4,19.1,11.2l-4,2.9c-4.6-4.2-10.5-7.4-17.4-9.7c-7-2.3-14.4-3.5-22.4-3.5
			c-6.2,0-11.9,0.9-16.9,2.7c-5,1.8-9.2,4.3-12.4,7.4c-3.3,3.1-5.8,6.8-7.5,10.9c-1.8,4.1-2.6,8.6-2.6,13.4c0,6.4,1.3,12.2,3.9,17.4
			c2.6,5.1,6.6,9.3,11.9,12.4C1405.6,198,1411.9,199.6,1419.2,199.6z M1419.2,179.9h7.8c9.2,0,16.5,2.8,21.7,8.5
			c5.2,5.6,7.8,12.7,7.8,21c0,8.5-3,15.6-9.1,21.1c-6.1,5.6-14.6,8.4-25.5,8.4c-7.3,0-14.1-1-20.4-3c-6.3-2-11.6-4.8-15.8-8.5
			l3.8-3.1c3.7,3.1,8.4,5.4,14.1,7.1c5.7,1.7,11.8,2.5,18.3,2.5c9.6,0,17-2.3,22-6.9c5.1-4.6,7.6-10.5,7.6-17.7
			c0-7.1-2.1-13-6.4-17.6c-4.3-4.6-10.4-7-18.3-7h-7.7c-6.7,0-11.6-1.8-15-5.5c-3.3-3.6-5-8.4-5-14.2c0-5.8,2.1-10.6,6.2-14.2
			c4.1-3.6,10.3-5.5,18.6-5.5c5.8,0,11.2,0.7,16.1,2c5,1.3,9.1,3.3,12.3,5.8l-3.9,3c-5.7-3.9-13.9-5.9-24.5-5.9
			c-6.9,0-11.9,1.4-15.1,4.1c-3.2,2.7-4.7,6.3-4.7,10.7c0,4.5,1.2,8,3.5,10.7C1410.1,178.6,1413.9,179.9,1419.2,179.9z
			 M1419.2,189.8h7.5c6.7,0,11.6,1.8,15,5.5c3.3,3.7,5,8.4,5,14.1c0,5.8-2.1,10.6-6.2,14.2c-4.1,3.6-10.3,5.5-18.6,5.5
			c-5.8,0-11.2-0.7-16.2-2c-5-1.3-9.1-3.3-12.3-5.8l3.9-3c5.7,3.9,13.9,5.9,24.6,5.9c6.9,0,11.9-1.4,15.1-4.1
			c3.2-2.7,4.7-6.3,4.7-10.7c0-4.4-1.2-8-3.6-10.7c-2.4-2.7-6.2-4.1-11.5-4.1h-7.4c-9.3,0-16.6-2.8-21.9-8.4
			c-5.3-5.6-7.9-12.6-7.9-21.1c0-8.5,3-15.6,9.1-21.1c6.1-5.6,14.6-8.4,25.5-8.4c7.3,0,14.1,1,20.4,3c6.3,2,11.6,4.8,15.8,8.5
			l-3.8,3.1c-3.7-3.1-8.4-5.4-14.1-7.1c-5.6-1.7-11.7-2.5-18.2-2.5c-9.6,0-17,2.3-22,6.9c-5.1,4.6-7.6,10.5-7.6,17.7
			c0,7.2,2.1,13,6.4,17.7C1405.1,187.4,1411.2,189.8,1419.2,189.8z"/>
		<path class="st5" d="M1482.2,243.9h-4.9V130.7h4.9V243.9z M1492,243.9h-4.9V130.7h4.9V243.9z M1501.8,243.9h-4.9V130.7h4.9V243.9z
			 M1511.7,219.3h52.3v4.9h-52.3v4.9h52.3v4.9h-52.3v4.9h52.3v4.9h-57.3V130.7h57.3v4.9h-52.3v4.9h52.3v4.9h-52.3v4.9h52.3v4.9
			h-52.3V175h26.9v4.9h-26.9v4.9h26.9v4.9h-26.9v4.9h26.9v4.9h-26.9V219.3z"/>
	</g>
	<rect x="991.2" y="107" class="st8" width="609.3" height="155.8"/>
</g>
</svg>
